<?xml version="1.0" encoding="utf-8"?>
<svg version="1.1" xmlns:xlink="http://www.w3.org/1999/xlink" width="1300px" height="900px" xmlns="http://www.w3.org/2000/svg">
  <g>
    <path d="M 0 0  L 1300 0  L 1300 900  L 0 900  L 0 0  " fill-rule="nonzero" fill="#cccccc" stroke="none" />
    <path d="M 63 63  L 1237 63  L 1237 837  L 63 837  L 63 63  " fill-rule="nonzero" fill="#ffffff" stroke="none" />
    <path d="M 743.5 270  C 705.7 270  676 240.3  676 202.5  C 676 164.7  705.7 135  743.5 135  C 781.3 135  811 164.7  811 202.5  C 811 240.3  781.3 270  743.5 270  " fill-rule="nonzero" fill="#cccccc" stroke="none" />
    <path d="M 86 815  L 86 414.04999999999995  L 368.25 231.79999999999995  L 763.4 512.1846153846154  L 989.2 341.15  L 1215 512.1846153846154  L 1215 815  L 86 815  " fill-rule="nonzero" fill="#169bd5" stroke="none" />
  </g>
</svg>