<?xml version="1.0" encoding="utf-8"?>
<svg version="1.1" xmlns:xlink="http://www.w3.org/1999/xlink" width="420px" height="30px" viewBox="441 240  420 30" xmlns="http://www.w3.org/2000/svg">
  <path d="M 442 250  A 9 9 0 0 1 451 241 L 851 241  A 9 9 0 0 1 860 250 L 860 260  A 9 9 0 0 1 851 269 L 451 269  A 9 9 0 0 1 442 260 L 442 250  Z " fill-rule="nonzero" fill="#f0f0f0" stroke="none" />
  <path d="M 441.5 250  A 9.5 9.5 0 0 1 451 240.5 L 851 240.5  A 9.5 9.5 0 0 1 860.5 250 L 860.5 260  A 9.5 9.5 0 0 1 851 269.5 L 451 269.5  A 9.5 9.5 0 0 1 441.5 260 L 441.5 250  Z " stroke-width="1" stroke-dasharray="17,4,5,4" stroke="#ffffff" fill="none" stroke-dashoffset="0.5" />
</svg>