<?xml version="1.0" encoding="utf-8"?>
<svg version="1.1" xmlns:xlink="http://www.w3.org/1999/xlink" width="1300px" height="1200px" xmlns="http://www.w3.org/2000/svg">
  <g>
    <path d="M 0 0  L 1300 0  L 1300 1200  L 0 1200  L 0 0  " fill-rule="nonzero" fill="#cccccc" stroke="none" />
    <path d="M 84 84  L 1216 84  L 1216 1116  L 84 1116  L 84 84  " fill-rule="nonzero" fill="#ffffff" stroke="none" />
    <path d="M 766 360  C 715.6 360  676 320.4  676 270  C 676 219.6  715.6 180  766 180  C 816.4 180  856 219.6  856 270  C 856 320.4  816.4 360  766 360  " fill-rule="nonzero" fill="#cccccc" stroke="none" />
    <path d="M 114 1086  L 114 551.4  L 382 308.4  L 757.1999999999999 547.6615384615385  L 971.6 454.19999999999993  L 1186 547.6615384615385  L 1186 1086  L 114 1086  " fill-rule="nonzero" fill="#169bd5" stroke="none" />
  </g>
</svg>