<?xml version="1.0" encoding="utf-8"?>
<svg version="1.1" xmlns:xlink="http://www.w3.org/1999/xlink" width="270px" height="480px" xmlns="http://www.w3.org/2000/svg">
  <g transform="matrix(1 0 0 1 -40 -190 )">
    <path d="M 40 190  L 310 190  L 310 670  L 40 670  L 40 190  " fill-rule="nonzero" fill="#cccccc" stroke="none" />
    <path d="M 59 209  L 291 209  L 291 651  L 59 651  L 59 209  " fill-rule="nonzero" fill="#ffffff" stroke="none" />
    <path d="M 200.65 302.5  C 189.31 302.5  180.4 293.59  180.4 282.25  C 180.4 270.91  189.31 262  200.65 262  C 211.99 262  220.9 270.91  220.9 282.25  C 220.9 293.59  211.99 302.5  200.65 302.5  " fill-rule="nonzero" fill="#cccccc" stroke="none" />
    <path d="M 66 644  L 66 408.6  L 120.5 301.59999999999997  L 196.79999999999998 387.2  L 240.4 365.8  L 284 387.2  L 284 644  L 66 644  " fill-rule="nonzero" fill="#169bd5" stroke="none" />
  </g>
</svg>